<svg xmlns="http://www.w3.org/2000/svg" aria-hidden="true" style="position:absolute;width:0;height:0;overflow:hidden">
  <defs>
    <symbol id="icon-vector-1" viewBox="0 0 1 32">
      <path fill="none" stroke="#f3f3f3" stroke-width=".41" d="M.41 0v32" style="stroke:var(--color1, #f3f3f3)"/>
    </symbol>
    <symbol id="icon-vector-2" viewBox="0 0 31 32">
      <path fill="none" stroke="#f3f3f3" stroke-width=".41" d="M.41 0v32" style="stroke:var(--color1, #f3f3f3)"/>
    </symbol>
    <symbol id="icon-vector-3" viewBox="0 0 77 32">
      <path fill="none" stroke="#f3f3f3" stroke-width=".41" d="M.41 0v32" style="stroke:var(--color1, #f3f3f3)"/>
    </symbol>
    <symbol id="icon-vector-4" viewBox="0 0 100 32">
      <path fill="none" stroke="#f3f3f3" stroke-width=".41" d="M.41 0v32" style="stroke:var(--color1, #f3f3f3)"/>
    </symbol>
    <symbol id="icon-vector-5" viewBox="0 0 69 32">
      <path fill="none" stroke="#f3f3f3" stroke-width=".41" d="M.41 0v32" style="stroke:var(--color1, #f3f3f3)"/>
    </symbol>
    <symbol id="icon-vector-6" viewBox="0 0 1 32">
      <path fill="none" stroke="#f3f3f3" stroke-width=".209" d="M.209 0v32" style="stroke:var(--color1, #f3f3f3)"/>
    </symbol>
    <symbol id="icon-twitter" viewBox="0 0 38 32">
      <path d="M25.665 2.751c1.983 0 3.773.811 5.035 2.114a14.156 14.156 0 0 0 4.377-1.623c-.514 1.561-1.608 2.871-3.031 3.7a14.124 14.124 0 0 0 3.961-1.056 13.85 13.85 0 0 1-3.442 3.464c.012.286.02.575.02.863 0 8.84-6.938 19.035-19.624 19.035A19.966 19.966 0 0 1 2.39 26.24c.546.064 1.095.095 1.644.095 3.231 0 6.206-1.068 8.567-2.865-3.02-.052-5.569-1.988-6.443-4.644a7.07 7.07 0 0 0 3.113-.114c-3.155-.613-5.533-3.317-5.533-6.56v-.086a7.028 7.028 0 0 0 3.125.838c-1.852-1.201-3.069-3.246-3.069-5.567 0-1.227.341-2.377.934-3.361 3.401 4.045 8.483 6.709 14.216 6.989a6.51 6.51 0 0 1-.179-1.523c0-3.695 3.088-6.69 6.899-6.69zm10.342 3.136zM25.664.351c-4.712 0-8.616 3.443-9.218 7.891-3.856-.775-7.362-2.816-9.881-5.81a2.393 2.393 0 0 0-2.025-.848 2.4 2.4 0 0 0-1.867 1.155 8.909 8.909 0 0 0-.716 7.721 2.408 2.408 0 0 0-.619 1.609v.086c0 2.351.929 4.532 2.473 6.167-.089.412-.069.842.067 1.255a9.029 9.029 0 0 0 2.758 4.078 11.952 11.952 0 0 1-3.963.204 2.4 2.4 0 0 0-1.553 4.422 22.38 22.38 0 0 0 11.839 3.37c13.651 0 21.863-10.687 22.022-21.125a16.129 16.129 0 0 0 2.942-3.193c.316-.415.487-.922.486-1.444 0-.817-.409-1.538-1.031-1.972a2.4 2.4 0 0 0-3.502-2.751 11.52 11.52 0 0 1-2.535 1.079A9.476 9.476 0 0 0 25.662.351z"/>
    </symbol>
    <symbol id="icon-youtube" viewBox="0 0 43 32">
      <path d="M39.197 2.571C38.041 1.739 34.82.634 21.322.634 6.857.634 4.711 1.903 4.023 2.319.358 4.521.01 14.27-.022 16.246c.044 2.611.466 11.297 4.043 13.445.687.414 2.821 1.676 17.302 1.676 13.507 0 16.724-1.1 17.875-1.929 3.124-2.247 3.483-9.987 3.492-13.227-.008-2.605-.281-11.328-3.492-13.641zM37.64 27.274c-.465.335-3.133 1.426-16.318 1.426-12.747 0-15.422-.989-15.927-1.294-1.287-.772-2.645-4.87-2.751-11.168.105-6.284 1.482-10.871 2.754-11.634.507-.306 3.191-1.303 15.925-1.303 13.175 0 15.85 1.099 16.318 1.435 1.142.823 2.365 5.153 2.383 11.485-.018 6.431-1.249 10.238-2.383 11.054zm-7.623-12.323L18.02 7.589a1.327 1.327 0 0 0-1.344-.019 1.33 1.33 0 0 0-.678 1.161v14.727a1.334 1.334 0 0 0 2.023 1.143l11.997-7.365a1.335 1.335 0 0 0 .001-2.284zm-11.352 6.145V11.092l8.083 5.001-8.083 5.003z"/>
    </symbol>
    <symbol id="icon-instagram" viewBox="0 0 32 32">
      <path d="M15.969.125c4.312 0 4.844.031 6.531.094 1.656.063 2.813.344 3.844.75 1.063.406 1.937.938 2.813 1.813s1.406 1.75 1.813 2.813c.406 1.031.687 2.188.75 3.844.062 1.688.094 2.219.094 6.531s-.031 4.844-.094 6.531c-.063 1.656-.344 2.813-.75 3.844-.406 1.063-.938 1.937-1.813 2.813s-1.75 1.406-2.813 1.813c-1.031.406-2.187.687-3.844.75-1.687.062-2.219.094-6.531.094s-4.844-.031-6.531-.094c-1.656-.063-2.813-.344-3.844-.75-1.063-.406-1.938-.938-2.813-1.813s-1.406-1.75-1.813-2.813c-.406-1.031-.688-2.187-.75-3.844-.063-1.687-.094-2.219-.094-6.531s.031-4.844.094-6.531c.063-1.656.344-2.813.75-3.844.406-1.063.938-1.938 1.813-2.813S4.531 1.376 5.594.969C6.625.563 7.782.281 9.438.219c1.688-.063 2.219-.094 6.531-.094zm0 2.063c-4.5 0-5.031.031-6.781.094-1.625.063-2.531.375-3.125.594-1.531.625-2.563 1.656-3.188 3.188-.219.594-.531 1.5-.594 3.125-.063 1.75-.094 2.281-.094 6.781s.031 5.031.094 6.781c.063 1.625.375 2.531.594 3.125.625 1.531 1.656 2.563 3.188 3.188.594.219 1.5.531 3.125.594 1.75.063 2.281.094 6.781.094s5.031-.031 6.781-.094c1.625-.063 2.531-.375 3.125-.594 1.531-.625 2.563-1.656 3.188-3.188.219-.594.531-1.5.594-3.125.063-1.75.094-2.281.094-6.781s-.031-5.031-.094-6.781c-.063-1.625-.375-2.531-.594-3.125-.625-1.531-1.656-2.563-3.188-3.188-.594-.219-1.5-.531-3.125-.594-1.75-.063-2.281-.094-6.781-.094zm0 20.125c3.5 0 6.344-2.844 6.344-6.344s-2.844-6.344-6.344-6.344c-3.5 0-6.344 2.844-6.344 6.344s2.844 6.344 6.344 6.344zm0-14.469c4.5 0 8.125 3.625 8.125 8.125s-3.625 8.125-8.125 8.125-8.125-3.625-8.125-8.125 3.625-8.125 8.125-8.125zm10.375-.313c0 1.063-.875 1.875-1.937 1.875s-1.875-.813-1.875-1.875c0-1.063.813-1.938 1.875-1.938s1.937.875 1.937 1.938z"/>
    </symbol>
    <symbol id="icon-tumblr" viewBox="0 0 21 32">
      <path d="M11.167 1.992v6.996h7.01v2.999h-6.979l-.01 8.704c0 1.618.084 2.657.255 3.117.267.727 1.236 1.657 3.037 1.657 1.397 0 3.281-.42 4.693-1.477v4.666c-1.177.561-2.273.788-3.227 1.015-.955.225-1.989.339-3.098.339-1.236 0-4.802-.034-6.266-3.763-.263-.671-.395-1.645-.395-2.921V11.992H2.16l.019-3.066c1.333 0 5.332-.81 5.332-6.934h3.655zm0-2H7.512a2 2 0 0 0-2 2c0 4.578-2.551 4.934-3.332 4.934a2 2 0 0 0-2 1.99l-.019 3.066a2.002 2.002 0 0 0 2 2.01h2.027v9.332c0 1.543.175 2.739.534 3.653.901 2.295 3.043 5.032 8.127 5.032a15.48 15.48 0 0 0 3.558-.393l.221-.052c.933-.219 2.126-.493 3.407-1.104a1.996 1.996 0 0 0 1.14-1.806v-4.666a2.001 2.001 0 0 0-1.999-2c-.432 0-.852.14-1.198.398-1.191.892-2.714 1.078-3.494 1.078-.8 0-1.097-.29-1.163-.367-.034-.157-.129-.743-.129-2.407l.007-6.704h4.982a2 2 0 0 0 2-2V8.987a2 2 0 0 0-2-2h-5.01V1.991a2 2 0 0 0-2-2z"/>
    </symbol>
  </defs>
</svg>



